<mxfile host="65bd71144e">
    <diagram id="taxaUmjwehEzx2mqGv78" name="Page-1">
        <mxGraphModel dx="1226" dy="639" grid="1" gridSize="10" guides="1" tooltips="1" connect="1" arrows="1" fold="1" page="1" pageScale="1" pageWidth="827" pageHeight="1169" math="0" shadow="0">
            <root>
                <mxCell id="0"/>
                <mxCell id="1" parent="0"/>
                <mxCell id="KiWz8coLWyKFR9xS5uvN-472" value="" style="rounded=1;whiteSpace=wrap;html=1;dashed=1;fontSize=14;strokeColor=#CDA2BE;strokeWidth=1;fillColor=none;" parent="1" vertex="1">
                    <mxGeometry x="447.68" y="40" width="170" height="140" as="geometry"/>
                </mxCell>
                <mxCell id="KiWz8coLWyKFR9xS5uvN-347" value="" style="rounded=0;whiteSpace=wrap;html=1;fontSize=14;fontStyle=1;strokeWidth=2;dashed=1;strokeColor=#CDA2BE;" parent="1" vertex="1">
                    <mxGeometry x="430" y="209" width="640" height="841" as="geometry"/>
                </mxCell>
                <mxCell id="KiWz8coLWyKFR9xS5uvN-355" value="" style="rounded=0;whiteSpace=wrap;html=1;fontSize=14;fontStyle=1;strokeColor=#CDA2BE;strokeWidth=2;dashed=1;" parent="1" vertex="1">
                    <mxGeometry x="1440.44" y="547.75" width="300" height="462.25" as="geometry"/>
                </mxCell>
                <mxCell id="KiWz8coLWyKFR9xS5uvN-271" value="" style="rounded=0;whiteSpace=wrap;html=1;fontSize=14;fontStyle=1;strokeColor=#CDA2BE;strokeWidth=2;dashed=1;" parent="1" vertex="1">
                    <mxGeometry x="584.75" y="230" width="312.75" height="210" as="geometry"/>
                </mxCell>
                <mxCell id="KiWz8coLWyKFR9xS5uvN-204" value="KubeCtl&lt;br style=&quot;font-size: 14px;&quot;&gt;" style="rounded=1;whiteSpace=wrap;html=1;fontSize=14;fontStyle=1;strokeColor=none;fillColor=#3399FF;fontColor=#FFFFFF;" parent="1" vertex="1">
                    <mxGeometry x="1031.0000000000002" y="30" width="130" height="40" as="geometry"/>
                </mxCell>
                <mxCell id="KiWz8coLWyKFR9xS5uvN-205" value="bcs-client&lt;br style=&quot;font-size: 14px;&quot;&gt;" style="rounded=1;whiteSpace=wrap;html=1;fontSize=14;fontStyle=1;fontColor=#FFFFFF;strokeColor=none;fillColor=#3399FF;" parent="1" vertex="1">
                    <mxGeometry x="1186.0000000000002" y="30" width="120" height="40" as="geometry"/>
                </mxCell>
                <mxCell id="KiWz8coLWyKFR9xS5uvN-206" value="Third Party System" style="rounded=1;whiteSpace=wrap;html=1;fontSize=14;fontStyle=1;fillColor=#009999;strokeColor=none;fontColor=#FFFFFF;" parent="1" vertex="1">
                    <mxGeometry x="1331" y="30" width="139" height="40" as="geometry"/>
                </mxCell>
                <mxCell id="KiWz8coLWyKFR9xS5uvN-207" value="BCS API Gateway" style="rounded=1;whiteSpace=wrap;html=1;fontSize=14;fontStyle=1;fontColor=#FFFFFF;strokeColor=none;fillColor=#3399FF;" parent="1" vertex="1">
                    <mxGeometry x="755" y="110" width="970" height="40" as="geometry"/>
                </mxCell>
                <mxCell id="KiWz8coLWyKFR9xS5uvN-208" value="" style="shape=flexArrow;endArrow=classic;startArrow=classic;html=1;width=13;endSize=3;startSize=3;fontSize=14;fontStyle=1;strokeColor=#3333FF;strokeWidth=2;" parent="1" edge="1">
                    <mxGeometry width="50" height="50" relative="1" as="geometry">
                        <mxPoint x="1093.5000000000002" y="110" as="sourcePoint"/>
                        <mxPoint x="1093.5000000000002" y="70" as="targetPoint"/>
                    </mxGeometry>
                </mxCell>
                <mxCell id="KiWz8coLWyKFR9xS5uvN-209" value="" style="shape=flexArrow;endArrow=classic;startArrow=classic;html=1;width=13;endSize=3;startSize=3;fontSize=14;fontStyle=1;strokeColor=#3333FF;strokeWidth=2;" parent="1" edge="1">
                    <mxGeometry width="50" height="50" relative="1" as="geometry">
                        <mxPoint x="1245.5000000000002" y="110" as="sourcePoint"/>
                        <mxPoint x="1245.5000000000002" y="70" as="targetPoint"/>
                    </mxGeometry>
                </mxCell>
                <mxCell id="KiWz8coLWyKFR9xS5uvN-210" value="" style="shape=flexArrow;endArrow=classic;startArrow=classic;html=1;width=15;endSize=3;startSize=3;fontSize=14;fontStyle=1;strokeColor=#3333FF;strokeWidth=2;" parent="1" edge="1">
                    <mxGeometry width="50" height="50" relative="1" as="geometry">
                        <mxPoint x="1395.5000000000002" y="110" as="sourcePoint"/>
                        <mxPoint x="1395.5000000000002" y="70" as="targetPoint"/>
                    </mxGeometry>
                </mxCell>
                <mxCell id="KiWz8coLWyKFR9xS5uvN-232" value="" style="rounded=0;whiteSpace=wrap;html=1;fontSize=14;fontStyle=1;strokeColor=#CDA2BE;strokeWidth=2;dashed=1;" parent="1" vertex="1">
                    <mxGeometry x="757.94" y="547.75" width="280" height="457.25" as="geometry"/>
                </mxCell>
                <mxCell id="KiWz8coLWyKFR9xS5uvN-233" value="" style="rounded=1;whiteSpace=wrap;html=1;fontSize=14;fontStyle=1;strokeColor=#3399FF;strokeWidth=2;" parent="1" vertex="1">
                    <mxGeometry x="774.16" y="557.19" width="249.81" height="242.81" as="geometry"/>
                </mxCell>
                <mxCell id="KiWz8coLWyKFR9xS5uvN-234" value="ETCD" style="shape=cylinder;whiteSpace=wrap;html=1;boundedLbl=1;backgroundOutline=1;fontSize=14;fontStyle=1;strokeColor=#FFFFFF;strokeWidth=2;fillColor=#FF99CC;" parent="1" vertex="1">
                    <mxGeometry x="917.6900000000003" y="612.75" width="85" height="35" as="geometry"/>
                </mxCell>
                <mxCell id="KiWz8coLWyKFR9xS5uvN-235" value="API Server" style="rounded=1;whiteSpace=wrap;html=1;fontSize=14;fontStyle=1;fontColor=#FFFFFF;strokeColor=none;fillColor=#009999;" parent="1" vertex="1">
                    <mxGeometry x="783.8100000000003" y="610.25" width="110" height="35" as="geometry"/>
                </mxCell>
                <mxCell id="KiWz8coLWyKFR9xS5uvN-236" value="Kube-Agent" style="rounded=1;whiteSpace=wrap;html=1;fontSize=14;fontStyle=1;fontColor=#FFFFFF;strokeColor=none;fillColor=#3399FF;" parent="1" vertex="1">
                    <mxGeometry x="786.1300000000003" y="567.75" width="110" height="35" as="geometry"/>
                </mxCell>
                <mxCell id="KiWz8coLWyKFR9xS5uvN-237" value="Scheduler" style="rounded=1;whiteSpace=wrap;html=1;fontSize=14;fontStyle=1;fontColor=#FFFFFF;strokeColor=none;fillColor=#009999;" parent="1" vertex="1">
                    <mxGeometry x="782.44" y="654.44" width="112.75" height="33.62" as="geometry"/>
                </mxCell>
                <mxCell id="KiWz8coLWyKFR9xS5uvN-238" value="Data Watch" style="rounded=1;whiteSpace=wrap;html=1;fontSize=14;fontStyle=1;fontColor=#FFFFFF;strokeColor=none;fillColor=#3399FF;" parent="1" vertex="1">
                    <mxGeometry x="906.4400000000003" y="570.13" width="110" height="35" as="geometry"/>
                </mxCell>
                <mxCell id="KiWz8coLWyKFR9xS5uvN-239" value="Controller Manager" style="rounded=1;whiteSpace=wrap;html=1;fontSize=14;fontStyle=1;fontColor=#FFFFFF;strokeColor=none;fillColor=#009999;" parent="1" vertex="1">
                    <mxGeometry x="905.1900000000003" y="654" width="110" height="36" as="geometry"/>
                </mxCell>
                <mxCell id="KiWz8coLWyKFR9xS5uvN-240" value="K8S Master" style="text;html=1;strokeColor=none;fillColor=none;align=center;verticalAlign=middle;whiteSpace=wrap;rounded=0;fontSize=14;fontStyle=1" parent="1" vertex="1">
                    <mxGeometry x="916.4400000000003" y="753.88" width="90" height="20" as="geometry"/>
                </mxCell>
                <mxCell id="KiWz8coLWyKFR9xS5uvN-255" value="" style="rounded=1;whiteSpace=wrap;html=1;fontSize=14;fontStyle=1;strokeColor=#3399FF;strokeWidth=2;" parent="1" vertex="1">
                    <mxGeometry x="602.5" y="240" width="285" height="180" as="geometry"/>
                </mxCell>
                <mxCell id="KiWz8coLWyKFR9xS5uvN-256" value="ETCD" style="shape=cylinder;whiteSpace=wrap;html=1;boundedLbl=1;backgroundOutline=1;fontSize=14;fontStyle=1;strokeColor=#FFFFFF;strokeWidth=2;fillColor=#FF99CC;" parent="1" vertex="1">
                    <mxGeometry x="767.5000000000002" y="290" width="85" height="35" as="geometry"/>
                </mxCell>
                <mxCell id="KiWz8coLWyKFR9xS5uvN-257" value="API Server" style="rounded=1;whiteSpace=wrap;html=1;fontSize=14;fontStyle=1;fontColor=#FFFFFF;strokeColor=none;fillColor=#009999;" parent="1" vertex="1">
                    <mxGeometry x="617.5000000000002" y="290" width="110" height="35" as="geometry"/>
                </mxCell>
                <mxCell id="KiWz8coLWyKFR9xS5uvN-258" value="Kube-Agent" style="rounded=1;whiteSpace=wrap;html=1;fontSize=14;fontStyle=1;fontColor=#FFFFFF;strokeColor=none;fillColor=#3399FF;" parent="1" vertex="1">
                    <mxGeometry x="617.5000000000002" y="245" width="110" height="35" as="geometry"/>
                </mxCell>
                <mxCell id="KiWz8coLWyKFR9xS5uvN-260" value="Data Watch" style="rounded=1;whiteSpace=wrap;html=1;fontSize=14;fontStyle=1;fontColor=#FFFFFF;strokeColor=none;fillColor=#3399FF;" parent="1" vertex="1">
                    <mxGeometry x="757.5000000000002" y="245" width="110" height="35" as="geometry"/>
                </mxCell>
                <mxCell id="KiWz8coLWyKFR9xS5uvN-261" value="Federation Controller Manager" style="rounded=1;whiteSpace=wrap;html=1;fontSize=14;fontStyle=1;fontColor=#FFFFFF;strokeColor=none;fillColor=#009999;" parent="1" vertex="1">
                    <mxGeometry x="616.13" y="329.5" width="250" height="40" as="geometry"/>
                </mxCell>
                <mxCell id="KiWz8coLWyKFR9xS5uvN-272" value="Host Cluster" style="text;html=1;align=center;verticalAlign=middle;resizable=0;points=[];autosize=1;strokeColor=none;fontSize=14;" parent="1" vertex="1">
                    <mxGeometry x="696.13" y="420" width="90" height="20" as="geometry"/>
                </mxCell>
                <mxCell id="KiWz8coLWyKFR9xS5uvN-273" value="BCS Storage&lt;br style=&quot;font-size: 14px;&quot;&gt;" style="rounded=1;whiteSpace=wrap;html=1;fontSize=14;fontStyle=1;fontColor=#FFFFFF;strokeColor=none;fillColor=#3399FF;" parent="1" vertex="1">
                    <mxGeometry x="1181.4400000000003" y="348" width="120" height="40" as="geometry"/>
                </mxCell>
                <mxCell id="KiWz8coLWyKFR9xS5uvN-274" style="rounded=0;orthogonalLoop=1;jettySize=auto;html=1;entryX=0.5;entryY=0;entryDx=0;entryDy=0;strokeColor=#009900;strokeWidth=2;fontSize=14;fontColor=#FFFFFF;exitX=0.5;exitY=1;exitDx=0;exitDy=0;" parent="1" source="KiWz8coLWyKFR9xS5uvN-207" target="KiWz8coLWyKFR9xS5uvN-273" edge="1">
                    <mxGeometry relative="1" as="geometry">
                        <mxPoint x="1380.0000000000002" y="180" as="sourcePoint"/>
                        <mxPoint x="1380.2500000000002" y="245" as="targetPoint"/>
                    </mxGeometry>
                </mxCell>
                <mxCell id="KiWz8coLWyKFR9xS5uvN-275" value="&lt;font color=&quot;#1a1a1a&quot;&gt;数据查询&lt;/font&gt;" style="text;html=1;resizable=0;points=[];align=center;verticalAlign=middle;labelBackgroundColor=#ffffff;fontSize=14;fontColor=#FFFFFF;" parent="KiWz8coLWyKFR9xS5uvN-274" vertex="1" connectable="0">
                    <mxGeometry x="0.0431" y="-3" relative="1" as="geometry">
                        <mxPoint y="13" as="offset"/>
                    </mxGeometry>
                </mxCell>
                <mxCell id="KiWz8coLWyKFR9xS5uvN-276" style="edgeStyle=orthogonalEdgeStyle;rounded=0;orthogonalLoop=1;jettySize=auto;html=1;exitX=0.5;exitY=1;exitDx=0;exitDy=0;fontSize=14;endArrow=none;endFill=0;strokeWidth=2;" parent="1" source="KiWz8coLWyKFR9xS5uvN-240" target="KiWz8coLWyKFR9xS5uvN-240" edge="1">
                    <mxGeometry relative="1" as="geometry"/>
                </mxCell>
                <mxCell id="KiWz8coLWyKFR9xS5uvN-278" value="" style="rounded=0;whiteSpace=wrap;html=1;fontSize=14;fontStyle=1;strokeColor=#CDA2BE;strokeWidth=2;dashed=1;" parent="1" vertex="1">
                    <mxGeometry x="451.56" y="550" width="280" height="455" as="geometry"/>
                </mxCell>
                <mxCell id="KiWz8coLWyKFR9xS5uvN-279" value="" style="rounded=1;whiteSpace=wrap;html=1;fontSize=14;fontStyle=1;strokeColor=#3399FF;strokeWidth=2;" parent="1" vertex="1">
                    <mxGeometry x="462.68" y="562.32" width="257.75" height="234.87" as="geometry"/>
                </mxCell>
                <mxCell id="KiWz8coLWyKFR9xS5uvN-280" value="ETCD" style="shape=cylinder;whiteSpace=wrap;html=1;boundedLbl=1;backgroundOutline=1;fontSize=14;fontStyle=1;strokeColor=#FFFFFF;strokeWidth=2;fillColor=#FF99CC;" parent="1" vertex="1">
                    <mxGeometry x="610.1800000000003" y="617.88" width="85" height="35" as="geometry"/>
                </mxCell>
                <mxCell id="KiWz8coLWyKFR9xS5uvN-281" value="API Server" style="rounded=1;whiteSpace=wrap;html=1;fontSize=14;fontStyle=1;fontColor=#FFFFFF;strokeColor=none;fillColor=#009999;" parent="1" vertex="1">
                    <mxGeometry x="477.68000000000023" y="615.13" width="110" height="35" as="geometry"/>
                </mxCell>
                <mxCell id="KiWz8coLWyKFR9xS5uvN-282" value="Kube-Agent" style="rounded=1;whiteSpace=wrap;html=1;fontSize=14;fontStyle=1;fontColor=#FFFFFF;strokeColor=none;fillColor=#3399FF;" parent="1" vertex="1">
                    <mxGeometry x="477.68000000000023" y="570.13" width="110" height="35" as="geometry"/>
                </mxCell>
                <mxCell id="KiWz8coLWyKFR9xS5uvN-283" value="Scheduler" style="rounded=1;whiteSpace=wrap;html=1;fontSize=14;fontStyle=1;fontColor=#FFFFFF;strokeColor=none;fillColor=#009999;" parent="1" vertex="1">
                    <mxGeometry x="477.68" y="659.26" width="112.75" height="33.62" as="geometry"/>
                </mxCell>
                <mxCell id="KiWz8coLWyKFR9xS5uvN-284" value="Data Watch" style="rounded=1;whiteSpace=wrap;html=1;fontSize=14;fontStyle=1;fontColor=#FFFFFF;strokeColor=none;fillColor=#3399FF;" parent="1" vertex="1">
                    <mxGeometry x="597.6800000000003" y="570.13" width="110" height="35" as="geometry"/>
                </mxCell>
                <mxCell id="KiWz8coLWyKFR9xS5uvN-285" value="Controller Manager" style="rounded=1;whiteSpace=wrap;html=1;fontSize=14;fontStyle=1;fontColor=#FFFFFF;strokeColor=none;fillColor=#009999;" parent="1" vertex="1">
                    <mxGeometry x="597.6800000000003" y="659.13" width="110" height="36" as="geometry"/>
                </mxCell>
                <mxCell id="KiWz8coLWyKFR9xS5uvN-286" value="K8S Master" style="text;html=1;strokeColor=none;fillColor=none;align=center;verticalAlign=middle;whiteSpace=wrap;rounded=0;fontSize=14;fontStyle=1" parent="1" vertex="1">
                    <mxGeometry x="610.1800000000002" y="761.87" width="90" height="20" as="geometry"/>
                </mxCell>
                <mxCell id="KiWz8coLWyKFR9xS5uvN-287" value="" style="rounded=1;whiteSpace=wrap;html=1;fontSize=14;fontStyle=1;strokeColor=#3399FF;strokeWidth=2;" parent="1" vertex="1">
                    <mxGeometry x="462.68" y="811.94" width="257.75" height="169.12" as="geometry"/>
                </mxCell>
                <mxCell id="KiWz8coLWyKFR9xS5uvN-288" value="K8S node" style="text;html=1;strokeColor=none;fillColor=none;align=center;verticalAlign=middle;whiteSpace=wrap;rounded=0;fontSize=14;fontStyle=1" parent="1" vertex="1">
                    <mxGeometry x="602.6800000000003" y="944.94" width="90" height="20" as="geometry"/>
                </mxCell>
                <mxCell id="KiWz8coLWyKFR9xS5uvN-289" value="Kubelet" style="rounded=1;whiteSpace=wrap;html=1;fontSize=14;fontStyle=1;fontColor=#FFFFFF;strokeColor=none;fillColor=#009999;" parent="1" vertex="1">
                    <mxGeometry x="477.68000000000023" y="818.81" width="110" height="30" as="geometry"/>
                </mxCell>
                <mxCell id="KiWz8coLWyKFR9xS5uvN-290" value="Kube-proxy" style="rounded=1;whiteSpace=wrap;html=1;fontSize=14;fontStyle=1;fontColor=#FFFFFF;strokeColor=none;fillColor=#009999;" parent="1" vertex="1">
                    <mxGeometry x="479.06000000000023" y="854.94" width="110" height="30" as="geometry"/>
                </mxCell>
                <mxCell id="KiWz8coLWyKFR9xS5uvN-291" value="Docker Daemon" style="rounded=1;whiteSpace=wrap;html=1;fontSize=14;fontStyle=1;fontColor=#FFFFFF;strokeColor=none;fillColor=#009999;" parent="1" vertex="1">
                    <mxGeometry x="597.6800000000003" y="854.94" width="110" height="30" as="geometry"/>
                </mxCell>
                <mxCell id="KiWz8coLWyKFR9xS5uvN-292" value="Flannel" style="rounded=1;whiteSpace=wrap;html=1;fontSize=14;fontStyle=1;fontColor=#FFFFFF;strokeColor=none;fillColor=#009999;" parent="1" vertex="1">
                    <mxGeometry x="597.6800000000003" y="818.81" width="110" height="30" as="geometry"/>
                </mxCell>
                <mxCell id="KiWz8coLWyKFR9xS5uvN-294" value="BCS-IPAM" style="rounded=1;whiteSpace=wrap;html=1;fontSize=14;fontStyle=1;fontColor=#FFFFFF;strokeColor=none;fillColor=#3399FF;" parent="1" vertex="1">
                    <mxGeometry x="597.6800000000003" y="891.94" width="110" height="30" as="geometry"/>
                </mxCell>
                <mxCell id="KiWz8coLWyKFR9xS5uvN-295" value="Business Container" style="rounded=1;whiteSpace=wrap;html=1;fontSize=14;fontStyle=1;fontColor=#FFFFFF;strokeColor=none;fillColor=#CC6600;" parent="1" vertex="1">
                    <mxGeometry x="477.68000000000006" y="930.99" width="112.5" height="40.82" as="geometry"/>
                </mxCell>
                <mxCell id="KiWz8coLWyKFR9xS5uvN-296" value="CNI" style="rounded=1;whiteSpace=wrap;html=1;fontSize=14;fontStyle=1;fontColor=#FFFFFF;strokeColor=none;fillColor=#3399FF;" parent="1" vertex="1">
                    <mxGeometry x="477.68000000000023" y="891.94" width="110" height="30" as="geometry"/>
                </mxCell>
                <mxCell id="KiWz8coLWyKFR9xS5uvN-297" value="Member Cluster" style="text;html=1;align=center;verticalAlign=middle;resizable=0;points=[];autosize=1;strokeColor=none;fontSize=14;" parent="1" vertex="1">
                    <mxGeometry x="576.57" y="984" width="120" height="20" as="geometry"/>
                </mxCell>
                <mxCell id="KiWz8coLWyKFR9xS5uvN-298" value="AZ: Shanghai1" style="text;html=1;align=center;verticalAlign=middle;resizable=0;points=[];autosize=1;strokeColor=none;fontSize=14;" parent="1" vertex="1">
                    <mxGeometry x="462.68" y="984" width="110" height="20" as="geometry"/>
                </mxCell>
                <mxCell id="KiWz8coLWyKFR9xS5uvN-299" style="edgeStyle=orthogonalEdgeStyle;rounded=0;orthogonalLoop=1;jettySize=auto;html=1;exitX=0.5;exitY=1;exitDx=0;exitDy=0;fontSize=14;endArrow=none;endFill=0;strokeWidth=2;" parent="1" source="KiWz8coLWyKFR9xS5uvN-286" target="KiWz8coLWyKFR9xS5uvN-286" edge="1">
                    <mxGeometry relative="1" as="geometry"/>
                </mxCell>
                <mxCell id="KiWz8coLWyKFR9xS5uvN-300" value="K8S Master" style="text;html=1;strokeColor=none;fillColor=none;align=center;verticalAlign=middle;whiteSpace=wrap;rounded=0;fontSize=14;fontStyle=1" parent="1" vertex="1">
                    <mxGeometry x="520.1800000000003" y="307.5" width="90" height="20" as="geometry"/>
                </mxCell>
                <mxCell id="KiWz8coLWyKFR9xS5uvN-301" style="rounded=0;orthogonalLoop=1;jettySize=auto;html=1;strokeColor=#009900;strokeWidth=2;fontSize=14;fontColor=#FFFFFF;exitX=0.75;exitY=0;exitDx=0;exitDy=0;" parent="1" source="KiWz8coLWyKFR9xS5uvN-284" target="KiWz8coLWyKFR9xS5uvN-273" edge="1">
                    <mxGeometry relative="1" as="geometry">
                        <Array as="points">
                            <mxPoint x="680" y="480"/>
                            <mxPoint x="1240" y="480"/>
                        </Array>
                        <mxPoint x="680" y="516" as="sourcePoint"/>
                        <mxPoint x="1200" y="350" as="targetPoint"/>
                    </mxGeometry>
                </mxCell>
                <mxCell id="KiWz8coLWyKFR9xS5uvN-302" style="rounded=0;orthogonalLoop=1;jettySize=auto;html=1;exitX=0.5;exitY=0;exitDx=0;exitDy=0;strokeColor=#009900;strokeWidth=2;fontSize=14;fontColor=#FFFFFF;" parent="1" source="KiWz8coLWyKFR9xS5uvN-238" target="KiWz8coLWyKFR9xS5uvN-273" edge="1">
                    <mxGeometry relative="1" as="geometry">
                        <Array as="points">
                            <mxPoint x="962" y="480"/>
                            <mxPoint x="1240" y="480"/>
                        </Array>
                        <mxPoint x="552" y="527.25" as="sourcePoint"/>
                        <mxPoint x="1250" y="280" as="targetPoint"/>
                    </mxGeometry>
                </mxCell>
                <mxCell id="KiWz8coLWyKFR9xS5uvN-303" style="rounded=0;orthogonalLoop=1;jettySize=auto;html=1;strokeColor=#009900;strokeWidth=2;fontSize=14;fontColor=#FFFFFF;entryX=0.5;entryY=1;entryDx=0;entryDy=0;" parent="1" source="KiWz8coLWyKFR9xS5uvN-260" target="KiWz8coLWyKFR9xS5uvN-273" edge="1">
                    <mxGeometry relative="1" as="geometry">
                        <Array as="points">
                            <mxPoint x="940" y="263"/>
                            <mxPoint x="940" y="480"/>
                            <mxPoint x="1241" y="480"/>
                        </Array>
                        <mxPoint x="897" y="263" as="sourcePoint"/>
                        <mxPoint x="1260" y="290" as="targetPoint"/>
                    </mxGeometry>
                </mxCell>
                <mxCell id="KiWz8coLWyKFR9xS5uvN-306" value="" style="rounded=0;whiteSpace=wrap;html=1;fontSize=14;fontStyle=1;strokeColor=#CDA2BE;strokeWidth=2;dashed=1;" parent="1" vertex="1">
                    <mxGeometry x="1109.07" y="545" width="280" height="465" as="geometry"/>
                </mxCell>
                <mxCell id="KiWz8coLWyKFR9xS5uvN-307" value="" style="rounded=1;whiteSpace=wrap;html=1;fontSize=14;fontStyle=1;strokeColor=#3399FF;strokeWidth=2;" parent="1" vertex="1">
                    <mxGeometry x="1121.32" y="566.25" width="257.75" height="223.75" as="geometry"/>
                </mxCell>
                <mxCell id="KiWz8coLWyKFR9xS5uvN-308" value="ETCD" style="shape=cylinder;whiteSpace=wrap;html=1;boundedLbl=1;backgroundOutline=1;fontSize=14;fontStyle=1;strokeColor=#FFFFFF;strokeWidth=2;fillColor=#FF99CC;" parent="1" vertex="1">
                    <mxGeometry x="1268.8200000000004" y="619" width="85" height="35" as="geometry"/>
                </mxCell>
                <mxCell id="KiWz8coLWyKFR9xS5uvN-309" value="API Server" style="rounded=1;whiteSpace=wrap;html=1;fontSize=14;fontStyle=1;fontColor=#FFFFFF;strokeColor=none;fillColor=#009999;" parent="1" vertex="1">
                    <mxGeometry x="1136.3200000000004" y="616.25" width="110" height="35" as="geometry"/>
                </mxCell>
                <mxCell id="KiWz8coLWyKFR9xS5uvN-310" value="Kube-Agent" style="rounded=1;whiteSpace=wrap;html=1;fontSize=14;fontStyle=1;fontColor=#FFFFFF;strokeColor=none;fillColor=#3399FF;" parent="1" vertex="1">
                    <mxGeometry x="1136.3200000000004" y="571.25" width="110" height="35" as="geometry"/>
                </mxCell>
                <mxCell id="KiWz8coLWyKFR9xS5uvN-311" value="Scheduler" style="rounded=1;whiteSpace=wrap;html=1;fontSize=14;fontStyle=1;fontColor=#FFFFFF;strokeColor=none;fillColor=#009999;" parent="1" vertex="1">
                    <mxGeometry x="1136.3200000000002" y="660.38" width="112.75" height="33.62" as="geometry"/>
                </mxCell>
                <mxCell id="KiWz8coLWyKFR9xS5uvN-312" value="Data Watch" style="rounded=1;whiteSpace=wrap;html=1;fontSize=14;fontStyle=1;fontColor=#FFFFFF;strokeColor=none;fillColor=#3399FF;" parent="1" vertex="1">
                    <mxGeometry x="1256.3200000000004" y="571.25" width="110" height="35" as="geometry"/>
                </mxCell>
                <mxCell id="KiWz8coLWyKFR9xS5uvN-313" value="Controller Manager" style="rounded=1;whiteSpace=wrap;html=1;fontSize=14;fontStyle=1;fontColor=#FFFFFF;strokeColor=none;fillColor=#009999;" parent="1" vertex="1">
                    <mxGeometry x="1256.3200000000004" y="660.25" width="110" height="36" as="geometry"/>
                </mxCell>
                <mxCell id="KiWz8coLWyKFR9xS5uvN-314" value="K8S Master" style="text;html=1;strokeColor=none;fillColor=none;align=center;verticalAlign=middle;whiteSpace=wrap;rounded=0;fontSize=14;fontStyle=1" parent="1" vertex="1">
                    <mxGeometry x="1268.8200000000004" y="758.13" width="90" height="20" as="geometry"/>
                </mxCell>
                <mxCell id="KiWz8coLWyKFR9xS5uvN-326" value="Kubernetes Cluster" style="text;html=1;align=center;verticalAlign=middle;resizable=0;points=[];autosize=1;strokeColor=none;fontSize=14;" parent="1" vertex="1">
                    <mxGeometry x="1179.0700000000002" y="988.13" width="140" height="20" as="geometry"/>
                </mxCell>
                <mxCell id="KiWz8coLWyKFR9xS5uvN-327" style="edgeStyle=orthogonalEdgeStyle;rounded=0;orthogonalLoop=1;jettySize=auto;html=1;exitX=0.5;exitY=1;exitDx=0;exitDy=0;fontSize=14;endArrow=none;endFill=0;strokeWidth=2;" parent="1" source="KiWz8coLWyKFR9xS5uvN-314" target="KiWz8coLWyKFR9xS5uvN-314" edge="1">
                    <mxGeometry relative="1" as="geometry"/>
                </mxCell>
                <mxCell id="KiWz8coLWyKFR9xS5uvN-328" value="" style="rounded=1;whiteSpace=wrap;html=1;fontSize=14;fontStyle=1;strokeColor=#3399FF;strokeWidth=2;" parent="1" vertex="1">
                    <mxGeometry x="1460.44" y="560.25" width="270" height="149.75" as="geometry"/>
                </mxCell>
                <mxCell id="KiWz8coLWyKFR9xS5uvN-329" value="Mesos Master" style="text;html=1;strokeColor=none;fillColor=none;align=center;verticalAlign=middle;whiteSpace=wrap;rounded=0;fontSize=14;fontStyle=1" parent="1" vertex="1">
                    <mxGeometry x="1595.4400000000003" y="666.07" width="120" height="20" as="geometry"/>
                </mxCell>
                <mxCell id="KiWz8coLWyKFR9xS5uvN-330" value="MesosDriver" style="rounded=1;whiteSpace=wrap;html=1;fontSize=14;fontStyle=1;fontColor=#FFFFFF;strokeColor=none;fillColor=#3399FF;" parent="1" vertex="1">
                    <mxGeometry x="1600.4400000000003" y="567.75" width="110" height="35" as="geometry"/>
                </mxCell>
                <mxCell id="KiWz8coLWyKFR9xS5uvN-334" value="ZK&lt;br style=&quot;font-size: 14px;&quot;&gt;" style="shape=cylinder;whiteSpace=wrap;html=1;boundedLbl=1;backgroundOutline=1;fontSize=14;fontStyle=1;strokeColor=#FFFFFF;strokeWidth=2;fillColor=#FF99CC;" parent="1" vertex="1">
                    <mxGeometry x="1610.4400000000003" y="612.25" width="90" height="35" as="geometry"/>
                </mxCell>
                <mxCell id="KiWz8coLWyKFR9xS5uvN-336" style="edgeStyle=none;rounded=0;orthogonalLoop=1;jettySize=auto;html=1;exitX=0.75;exitY=1;exitDx=0;exitDy=0;fontSize=12;" parent="1" source="KiWz8coLWyKFR9xS5uvN-329" target="KiWz8coLWyKFR9xS5uvN-329" edge="1">
                    <mxGeometry relative="1" as="geometry"/>
                </mxCell>
                <mxCell id="KiWz8coLWyKFR9xS5uvN-337" value="" style="rounded=1;whiteSpace=wrap;html=1;fontSize=14;fontStyle=1;strokeColor=#3399FF;strokeWidth=2;" parent="1" vertex="1">
                    <mxGeometry x="1460.44" y="731.06" width="260" height="250" as="geometry"/>
                </mxCell>
                <mxCell id="KiWz8coLWyKFR9xS5uvN-338" value="Mesos Slave" style="text;html=1;strokeColor=none;fillColor=none;align=center;verticalAlign=middle;whiteSpace=wrap;rounded=0;fontSize=14;fontStyle=1" parent="1" vertex="1">
                    <mxGeometry x="1545.4400000000003" y="956.93" width="90" height="20" as="geometry"/>
                </mxCell>
                <mxCell id="KiWz8coLWyKFR9xS5uvN-339" value="&amp;nbsp;Mesos Slave" style="rounded=1;whiteSpace=wrap;html=1;fontSize=14;fontStyle=1;fontColor=#FFFFFF;strokeColor=none;fillColor=#009999;" parent="1" vertex="1">
                    <mxGeometry x="1471.69" y="853.43" width="107.5" height="40" as="geometry"/>
                </mxCell>
                <mxCell id="KiWz8coLWyKFR9xS5uvN-340" value="Process Executor" style="rounded=1;whiteSpace=wrap;html=1;fontSize=14;fontStyle=1;fontColor=#FFFFFF;strokeColor=none;fillColor=#3399FF;" parent="1" vertex="1">
                    <mxGeometry x="1475.4400000000003" y="746.81" width="110" height="40" as="geometry"/>
                </mxCell>
                <mxCell id="KiWz8coLWyKFR9xS5uvN-341" value="Container Executor" style="rounded=1;whiteSpace=wrap;html=1;fontSize=14;fontStyle=1;fontColor=#FFFFFF;strokeColor=none;fillColor=#3399FF;" parent="1" vertex="1">
                    <mxGeometry x="1590.4400000000003" y="746.81" width="110" height="40" as="geometry"/>
                </mxCell>
                <mxCell id="KiWz8coLWyKFR9xS5uvN-342" value="BCS-IPAM" style="rounded=1;whiteSpace=wrap;html=1;fontSize=14;fontStyle=1;fontColor=#FFFFFF;strokeColor=none;fillColor=#3399FF;" parent="1" vertex="1">
                    <mxGeometry x="1475.44" y="802.93" width="105" height="40" as="geometry"/>
                </mxCell>
                <mxCell id="KiWz8coLWyKFR9xS5uvN-343" value="CNI" style="rounded=1;whiteSpace=wrap;html=1;fontSize=14;fontStyle=1;fontColor=#FFFFFF;strokeColor=none;fillColor=#3399FF;" parent="1" vertex="1">
                    <mxGeometry x="1590.4400000000003" y="802.93" width="110" height="40" as="geometry"/>
                </mxCell>
                <mxCell id="KiWz8coLWyKFR9xS5uvN-344" value="Business Container" style="rounded=1;whiteSpace=wrap;html=1;fontSize=14;fontStyle=1;fontColor=#FFFFFF;strokeColor=none;fillColor=#CC6600;" parent="1" vertex="1">
                    <mxGeometry x="1590.4400000000003" y="906.56" width="110" height="40" as="geometry"/>
                </mxCell>
                <mxCell id="KiWz8coLWyKFR9xS5uvN-345" value="Business Process" style="rounded=1;whiteSpace=wrap;html=1;fontSize=14;fontStyle=1;fontColor=#FFFFFF;strokeColor=none;fillColor=#CC6600;" parent="1" vertex="1">
                    <mxGeometry x="1471.6900000000003" y="906.56" width="110" height="40" as="geometry"/>
                </mxCell>
                <mxCell id="KiWz8coLWyKFR9xS5uvN-346" value="Docker Daemon" style="rounded=1;whiteSpace=wrap;html=1;fontSize=14;fontStyle=1;fontColor=#FFFFFF;strokeColor=none;fillColor=#009999;" parent="1" vertex="1">
                    <mxGeometry x="1590.44" y="853.43" width="110" height="40" as="geometry"/>
                </mxCell>
                <mxCell id="KiWz8coLWyKFR9xS5uvN-348" value="Kubernetes Federation Cluster" style="text;html=1;align=center;verticalAlign=middle;resizable=0;points=[];autosize=1;strokeColor=none;fontSize=19;fontStyle=0" parent="1" vertex="1">
                    <mxGeometry x="597.6800000000001" y="1022.25" width="270" height="30" as="geometry"/>
                </mxCell>
                <mxCell id="KiWz8coLWyKFR9xS5uvN-350" value="Data Watch" style="rounded=1;whiteSpace=wrap;html=1;fontSize=14;fontStyle=1;fontColor=#FFFFFF;strokeColor=none;fillColor=#3399FF;" parent="1" vertex="1">
                    <mxGeometry x="1480.4400000000003" y="567.75" width="110" height="35" as="geometry"/>
                </mxCell>
                <mxCell id="KiWz8coLWyKFR9xS5uvN-351" value="Scheduler" style="rounded=1;whiteSpace=wrap;html=1;fontSize=14;fontStyle=1;fontColor=#FFFFFF;strokeColor=none;fillColor=#3399FF;" parent="1" vertex="1">
                    <mxGeometry x="1480.4400000000003" y="610.25" width="110" height="35" as="geometry"/>
                </mxCell>
                <mxCell id="KiWz8coLWyKFR9xS5uvN-352" value="Mesos Master" style="rounded=1;whiteSpace=wrap;html=1;fontSize=14;fontStyle=1;fontColor=#FFFFFF;strokeColor=none;fillColor=#009999;" parent="1" vertex="1">
                    <mxGeometry x="1480.4400000000003" y="653.75" width="110" height="35" as="geometry"/>
                </mxCell>
                <mxCell id="KiWz8coLWyKFR9xS5uvN-356" value="Mesos Cluster" style="text;html=1;align=center;verticalAlign=middle;resizable=0;points=[];autosize=1;strokeColor=none;fontSize=14;" parent="1" vertex="1">
                    <mxGeometry x="1540.44" y="988.13" width="100" height="20" as="geometry"/>
                </mxCell>
                <mxCell id="KiWz8coLWyKFR9xS5uvN-357" style="rounded=0;orthogonalLoop=1;jettySize=auto;html=1;exitX=0.5;exitY=0;exitDx=0;exitDy=0;strokeColor=#009900;strokeWidth=2;fontSize=14;fontColor=#FFFFFF;entryX=0.5;entryY=1;entryDx=0;entryDy=0;" parent="1" source="KiWz8coLWyKFR9xS5uvN-312" target="KiWz8coLWyKFR9xS5uvN-273" edge="1">
                    <mxGeometry relative="1" as="geometry">
                        <Array as="points">
                            <mxPoint x="1312" y="480"/>
                            <mxPoint x="1241" y="480"/>
                        </Array>
                        <mxPoint x="862" y="527.25" as="sourcePoint"/>
                        <mxPoint x="1250.913043478261" y="280" as="targetPoint"/>
                    </mxGeometry>
                </mxCell>
                <mxCell id="KiWz8coLWyKFR9xS5uvN-358" style="rounded=0;orthogonalLoop=1;jettySize=auto;html=1;exitX=0.5;exitY=0;exitDx=0;exitDy=0;strokeColor=#009900;strokeWidth=2;fontSize=14;fontColor=#FFFFFF;entryX=0.5;entryY=1;entryDx=0;entryDy=0;" parent="1" source="KiWz8coLWyKFR9xS5uvN-350" target="KiWz8coLWyKFR9xS5uvN-273" edge="1">
                    <mxGeometry relative="1" as="geometry">
                        <Array as="points">
                            <mxPoint x="1535" y="480"/>
                            <mxPoint x="1241" y="480"/>
                        </Array>
                        <mxPoint x="872" y="537.25" as="sourcePoint"/>
                        <mxPoint x="1250" y="280" as="targetPoint"/>
                    </mxGeometry>
                </mxCell>
                <mxCell id="KiWz8coLWyKFR9xS5uvN-359" value="&lt;font color=&quot;#1a1a1a&quot;&gt;数据同步&lt;/font&gt;" style="text;html=1;resizable=0;points=[];align=center;verticalAlign=middle;labelBackgroundColor=#ffffff;fontSize=14;fontColor=#FFFFFF;" parent="1" vertex="1" connectable="0">
                    <mxGeometry x="1249.0700000000002" y="434.5" as="geometry">
                        <mxPoint x="-5" y="-4" as="offset"/>
                    </mxGeometry>
                </mxCell>
                <mxCell id="KiWz8coLWyKFR9xS5uvN-360" style="rounded=0;orthogonalLoop=1;jettySize=auto;html=1;exitX=0.5;exitY=0;exitDx=0;exitDy=0;strokeColor=#FF66B3;strokeWidth=2;fontSize=14;fontColor=#FFFFFF;" parent="1" source="KiWz8coLWyKFR9xS5uvN-282" edge="1">
                    <mxGeometry relative="1" as="geometry">
                        <mxPoint x="190" y="555" as="sourcePoint"/>
                        <mxPoint x="1109" y="150" as="targetPoint"/>
                        <Array as="points">
                            <mxPoint x="532" y="450"/>
                            <mxPoint x="1109" y="450"/>
                        </Array>
                    </mxGeometry>
                </mxCell>
                <mxCell id="KiWz8coLWyKFR9xS5uvN-362" style="rounded=0;orthogonalLoop=1;jettySize=auto;html=1;exitX=0.5;exitY=0;exitDx=0;exitDy=0;strokeColor=#FF66B3;strokeWidth=2;fontSize=14;fontColor=#FFFFFF;entryX=0.365;entryY=0.999;entryDx=0;entryDy=0;entryPerimeter=0;" parent="1" source="KiWz8coLWyKFR9xS5uvN-236" target="KiWz8coLWyKFR9xS5uvN-207" edge="1">
                    <mxGeometry relative="1" as="geometry">
                        <mxPoint x="999.75" y="399" as="sourcePoint"/>
                        <mxPoint x="1130" y="160" as="targetPoint"/>
                        <Array as="points">
                            <mxPoint x="842" y="450"/>
                            <mxPoint x="1110" y="450"/>
                        </Array>
                    </mxGeometry>
                </mxCell>
                <mxCell id="KiWz8coLWyKFR9xS5uvN-364" style="rounded=0;orthogonalLoop=1;jettySize=auto;html=1;exitX=0.5;exitY=0;exitDx=0;exitDy=0;strokeColor=#FF66B3;strokeWidth=2;fontSize=14;fontColor=#FFFFFF;" parent="1" source="KiWz8coLWyKFR9xS5uvN-310" edge="1">
                    <mxGeometry relative="1" as="geometry">
                        <mxPoint x="582" y="536.25" as="sourcePoint"/>
                        <mxPoint x="1110" y="150" as="targetPoint"/>
                        <Array as="points">
                            <mxPoint x="1192" y="450"/>
                            <mxPoint x="1110" y="450"/>
                        </Array>
                    </mxGeometry>
                </mxCell>
                <mxCell id="KiWz8coLWyKFR9xS5uvN-366" style="rounded=0;orthogonalLoop=1;jettySize=auto;html=1;exitX=0.5;exitY=0;exitDx=0;exitDy=0;strokeColor=#FF66B3;strokeWidth=2;fontSize=14;fontColor=#FFFFFF;" parent="1" source="KiWz8coLWyKFR9xS5uvN-330" edge="1">
                    <mxGeometry relative="1" as="geometry">
                        <mxPoint x="592" y="546.25" as="sourcePoint"/>
                        <mxPoint x="1109" y="150" as="targetPoint"/>
                        <Array as="points">
                            <mxPoint x="1655" y="450"/>
                            <mxPoint x="1109" y="450"/>
                        </Array>
                    </mxGeometry>
                </mxCell>
                <mxCell id="KiWz8coLWyKFR9xS5uvN-367" value="&lt;font color=&quot;#1a1a1a&quot;&gt;集群注册&lt;/font&gt;" style="text;html=1;resizable=0;points=[];align=center;verticalAlign=middle;labelBackgroundColor=#ffffff;fontSize=14;fontColor=#FFFFFF;" parent="KiWz8coLWyKFR9xS5uvN-366" vertex="1" connectable="0">
                    <mxGeometry x="0.6842" y="1" relative="1" as="geometry">
                        <mxPoint x="2" y="-73" as="offset"/>
                    </mxGeometry>
                </mxCell>
                <mxCell id="KiWz8coLWyKFR9xS5uvN-368" style="rounded=0;orthogonalLoop=1;jettySize=auto;html=1;exitX=0.5;exitY=0;exitDx=0;exitDy=0;strokeColor=#FF66B3;strokeWidth=2;fontSize=14;fontColor=#FFFFFF;jumpStyle=none;" parent="1" source="KiWz8coLWyKFR9xS5uvN-258" edge="1">
                    <mxGeometry relative="1" as="geometry">
                        <mxPoint x="542.25" y="527.25" as="sourcePoint"/>
                        <mxPoint x="1109" y="150" as="targetPoint"/>
                        <Array as="points">
                            <mxPoint x="673" y="190"/>
                            <mxPoint x="1109" y="190"/>
                        </Array>
                    </mxGeometry>
                </mxCell>
                <mxCell id="KiWz8coLWyKFR9xS5uvN-369" value="&lt;font style=&quot;font-size: 14px;&quot;&gt;RabbitMQ&lt;/font&gt;" style="shape=cylinder3;whiteSpace=wrap;html=1;boundedLbl=1;backgroundOutline=1;size=15;rounded=0;fontSize=14;direction=north;fillColor=#FF99CC;strokeColor=#FFFFFF;strokeWidth=2;" parent="1" vertex="1">
                    <mxGeometry x="1409.0700000000002" y="315" width="118.75" height="56" as="geometry"/>
                </mxCell>
                <mxCell id="KiWz8coLWyKFR9xS5uvN-370" style="rounded=0;orthogonalLoop=1;jettySize=auto;html=1;exitX=1;exitY=0.5;exitDx=0;exitDy=0;strokeColor=#009900;strokeWidth=2;fontSize=14;fontColor=#FFFFFF;entryX=0.5;entryY=0;entryDx=0;entryDy=0;entryPerimeter=0;" parent="1" source="KiWz8coLWyKFR9xS5uvN-273" target="KiWz8coLWyKFR9xS5uvN-369" edge="1">
                    <mxGeometry relative="1" as="geometry">
                        <Array as="points">
                            <mxPoint x="1340" y="368"/>
                            <mxPoint x="1340" y="343"/>
                        </Array>
                        <mxPoint x="1545.44" y="643.5" as="sourcePoint"/>
                        <mxPoint x="1251.44" y="398" as="targetPoint"/>
                    </mxGeometry>
                </mxCell>
                <mxCell id="KiWz8coLWyKFR9xS5uvN-371" value="&lt;font color=&quot;#1a1a1a&quot;&gt;数据写入&lt;/font&gt;" style="text;html=1;resizable=0;points=[];align=center;verticalAlign=middle;labelBackgroundColor=#ffffff;fontSize=14;fontColor=#FFFFFF;" parent="1" vertex="1" connectable="0">
                    <mxGeometry x="1366.3200000000002" y="335" as="geometry">
                        <mxPoint x="-5" y="-4" as="offset"/>
                    </mxGeometry>
                </mxCell>
                <mxCell id="KiWz8coLWyKFR9xS5uvN-372" value="AlertManager" style="rounded=1;whiteSpace=wrap;html=1;fontSize=14;fontStyle=1;fontColor=#FFFFFF;strokeColor=none;fillColor=#3399FF;" parent="1" vertex="1">
                    <mxGeometry x="1600.44" y="297.5" width="120" height="40" as="geometry"/>
                </mxCell>
                <mxCell id="KiWz8coLWyKFR9xS5uvN-376" style="rounded=0;orthogonalLoop=1;jettySize=auto;html=1;strokeColor=#009900;strokeWidth=2;fontSize=14;fontColor=#FFFFFF;entryX=0;entryY=0.5;entryDx=0;entryDy=0;" parent="1" target="KiWz8coLWyKFR9xS5uvN-372" edge="1">
                    <mxGeometry relative="1" as="geometry">
                        <mxPoint x="1540.44" y="343" as="sourcePoint"/>
                        <mxPoint x="1580.44" y="293" as="targetPoint"/>
                        <Array as="points">
                            <mxPoint x="1560.44" y="343"/>
                            <mxPoint x="1560" y="318"/>
                        </Array>
                    </mxGeometry>
                </mxCell>
                <mxCell id="KiWz8coLWyKFR9xS5uvN-378" value="DataOperator" style="rounded=1;whiteSpace=wrap;html=1;fontSize=14;fontStyle=1;fontColor=#FFFFFF;strokeColor=none;fillColor=#3399FF;" parent="1" vertex="1">
                    <mxGeometry x="1600.44" y="344.5" width="120" height="40" as="geometry"/>
                </mxCell>
                <mxCell id="KiWz8coLWyKFR9xS5uvN-385" style="rounded=0;orthogonalLoop=1;jettySize=auto;html=1;strokeColor=#009900;strokeWidth=2;fontSize=14;fontColor=#FFFFFF;entryX=0;entryY=0.5;entryDx=0;entryDy=0;exitX=0.5;exitY=1;exitDx=0;exitDy=0;exitPerimeter=0;" parent="1" source="KiWz8coLWyKFR9xS5uvN-369" target="KiWz8coLWyKFR9xS5uvN-378" edge="1">
                    <mxGeometry relative="1" as="geometry">
                        <mxPoint x="1540.44" y="343" as="sourcePoint"/>
                        <mxPoint x="1610.44" y="305" as="targetPoint"/>
                        <Array as="points">
                            <mxPoint x="1560.44" y="343"/>
                            <mxPoint x="1560.44" y="365"/>
                        </Array>
                    </mxGeometry>
                </mxCell>
                <mxCell id="KiWz8coLWyKFR9xS5uvN-387" value="UserManager" style="rounded=1;whiteSpace=wrap;html=1;fontSize=14;fontStyle=1;fontColor=#FFFFFF;strokeColor=none;fillColor=#3399FF;" parent="1" vertex="1">
                    <mxGeometry x="1410" y="160" width="120" height="40" as="geometry"/>
                </mxCell>
                <mxCell id="KiWz8coLWyKFR9xS5uvN-388" style="rounded=0;orthogonalLoop=1;jettySize=auto;html=1;entryX=0;entryY=0.5;entryDx=0;entryDy=0;strokeColor=#009900;strokeWidth=2;fontSize=14;fontColor=#FFFFFF;endArrow=classic;endFill=1;startArrow=classic;startFill=1;" parent="1" target="KiWz8coLWyKFR9xS5uvN-387" edge="1">
                    <mxGeometry relative="1" as="geometry">
                        <mxPoint x="1320" y="150" as="sourcePoint"/>
                        <mxPoint x="1251" y="308.5" as="targetPoint"/>
                        <Array as="points">
                            <mxPoint x="1320" y="180"/>
                        </Array>
                    </mxGeometry>
                </mxCell>
                <mxCell id="KiWz8coLWyKFR9xS5uvN-390" value="&lt;font color=&quot;#1a1a1a&quot;&gt;鉴权&lt;/font&gt;" style="text;html=1;resizable=0;points=[];align=center;verticalAlign=middle;labelBackgroundColor=#ffffff;fontSize=14;fontColor=#FFFFFF;" parent="1" vertex="1" connectable="0">
                    <mxGeometry x="947.9385747802853" y="209.9984557679454" as="geometry">
                        <mxPoint x="418" y="-41" as="offset"/>
                    </mxGeometry>
                </mxCell>
                <mxCell id="KiWz8coLWyKFR9xS5uvN-393" value="" style="endArrow=classic;html=1;strokeColor=#3399FF;strokeWidth=2;fontSize=14;fontColor=#FFFFFF;entryX=0.5;entryY=0;entryDx=0;entryDy=0;rounded=0;" parent="1" target="KiWz8coLWyKFR9xS5uvN-278" edge="1">
                    <mxGeometry width="50" height="50" relative="1" as="geometry">
                        <mxPoint x="1160" y="150" as="sourcePoint"/>
                        <mxPoint x="280.20000000000005" y="375" as="targetPoint"/>
                        <Array as="points">
                            <mxPoint x="1160" y="510"/>
                            <mxPoint x="590" y="510"/>
                        </Array>
                    </mxGeometry>
                </mxCell>
                <mxCell id="KiWz8coLWyKFR9xS5uvN-399" value="" style="rounded=1;whiteSpace=wrap;html=1;fontSize=14;fontStyle=1;strokeColor=#3399FF;strokeWidth=2;" parent="1" vertex="1">
                    <mxGeometry x="770.19" y="813.8800000000001" width="257.75" height="167.18" as="geometry"/>
                </mxCell>
                <mxCell id="KiWz8coLWyKFR9xS5uvN-400" value="K8S node" style="text;html=1;strokeColor=none;fillColor=none;align=center;verticalAlign=middle;whiteSpace=wrap;rounded=0;fontSize=14;fontStyle=1" parent="1" vertex="1">
                    <mxGeometry x="910.1900000000003" y="947.75" width="90" height="20" as="geometry"/>
                </mxCell>
                <mxCell id="KiWz8coLWyKFR9xS5uvN-401" value="Kubelet" style="rounded=1;whiteSpace=wrap;html=1;fontSize=14;fontStyle=1;fontColor=#FFFFFF;strokeColor=none;fillColor=#009999;" parent="1" vertex="1">
                    <mxGeometry x="785.1900000000003" y="820.75" width="110" height="30" as="geometry"/>
                </mxCell>
                <mxCell id="KiWz8coLWyKFR9xS5uvN-402" value="Kube-proxy" style="rounded=1;whiteSpace=wrap;html=1;fontSize=14;fontStyle=1;fontColor=#FFFFFF;strokeColor=none;fillColor=#009999;" parent="1" vertex="1">
                    <mxGeometry x="786.5700000000003" y="856.8800000000001" width="110" height="30" as="geometry"/>
                </mxCell>
                <mxCell id="KiWz8coLWyKFR9xS5uvN-403" value="Docker Daemon" style="rounded=1;whiteSpace=wrap;html=1;fontSize=14;fontStyle=1;fontColor=#FFFFFF;strokeColor=none;fillColor=#009999;" parent="1" vertex="1">
                    <mxGeometry x="905.1900000000003" y="856.8800000000001" width="110" height="30" as="geometry"/>
                </mxCell>
                <mxCell id="KiWz8coLWyKFR9xS5uvN-404" value="Flannel" style="rounded=1;whiteSpace=wrap;html=1;fontSize=14;fontStyle=1;fontColor=#FFFFFF;strokeColor=none;fillColor=#009999;" parent="1" vertex="1">
                    <mxGeometry x="905.1900000000003" y="820.75" width="110" height="30" as="geometry"/>
                </mxCell>
                <mxCell id="KiWz8coLWyKFR9xS5uvN-405" value="BCS-IPAM" style="rounded=1;whiteSpace=wrap;html=1;fontSize=14;fontStyle=1;fontColor=#FFFFFF;strokeColor=none;fillColor=#3399FF;" parent="1" vertex="1">
                    <mxGeometry x="905.1900000000003" y="893.8800000000001" width="110" height="30" as="geometry"/>
                </mxCell>
                <mxCell id="KiWz8coLWyKFR9xS5uvN-406" value="Business Container" style="rounded=1;whiteSpace=wrap;html=1;fontSize=14;fontStyle=1;fontColor=#FFFFFF;strokeColor=none;fillColor=#CC6600;" parent="1" vertex="1">
                    <mxGeometry x="785.44" y="932.96" width="112.5" height="40.82" as="geometry"/>
                </mxCell>
                <mxCell id="KiWz8coLWyKFR9xS5uvN-407" value="CNI" style="rounded=1;whiteSpace=wrap;html=1;fontSize=14;fontStyle=1;fontColor=#FFFFFF;strokeColor=none;fillColor=#3399FF;" parent="1" vertex="1">
                    <mxGeometry x="785.1900000000003" y="893.8800000000001" width="110" height="30" as="geometry"/>
                </mxCell>
                <mxCell id="KiWz8coLWyKFR9xS5uvN-408" value="GameDeployment" style="rounded=1;whiteSpace=wrap;html=1;fontSize=14;fontStyle=1;fontColor=#FFFFFF;strokeColor=none;fillColor=#3399FF;" parent="1" vertex="1">
                    <mxGeometry x="470.43" y="704.0000000000001" width="120" height="36.87" as="geometry"/>
                </mxCell>
                <mxCell id="KiWz8coLWyKFR9xS5uvN-409" value="GameStatefulSet" style="rounded=1;whiteSpace=wrap;html=1;fontSize=14;fontStyle=1;fontColor=#FFFFFF;strokeColor=none;fillColor=#3399FF;" parent="1" vertex="1">
                    <mxGeometry x="597.5" y="704" width="120" height="36.87" as="geometry"/>
                </mxCell>
                <mxCell id="KiWz8coLWyKFR9xS5uvN-410" value="Hook Operator" style="rounded=1;whiteSpace=wrap;html=1;fontSize=14;fontStyle=1;fontColor=#FFFFFF;strokeColor=none;fillColor=#3399FF;" parent="1" vertex="1">
                    <mxGeometry x="470.43" y="751.8700000000001" width="120" height="36.87" as="geometry"/>
                </mxCell>
                <mxCell id="KiWz8coLWyKFR9xS5uvN-411" value="AZ: Shanghai2" style="text;html=1;align=center;verticalAlign=middle;resizable=0;points=[];autosize=1;strokeColor=none;fontSize=14;" parent="1" vertex="1">
                    <mxGeometry x="777.94" y="985" width="110" height="20" as="geometry"/>
                </mxCell>
                <mxCell id="KiWz8coLWyKFR9xS5uvN-412" value="Member Cluster" style="text;html=1;align=center;verticalAlign=middle;resizable=0;points=[];autosize=1;strokeColor=none;fontSize=14;" parent="1" vertex="1">
                    <mxGeometry x="895.19" y="985" width="120" height="20" as="geometry"/>
                </mxCell>
                <mxCell id="KiWz8coLWyKFR9xS5uvN-413" value="" style="rounded=1;whiteSpace=wrap;html=1;fontSize=14;fontStyle=1;strokeColor=#3399FF;strokeWidth=2;" parent="1" vertex="1">
                    <mxGeometry x="1120.2" y="809" width="257.75" height="175" as="geometry"/>
                </mxCell>
                <mxCell id="KiWz8coLWyKFR9xS5uvN-414" value="K8S node" style="text;html=1;strokeColor=none;fillColor=none;align=center;verticalAlign=middle;whiteSpace=wrap;rounded=0;fontSize=14;fontStyle=1" parent="1" vertex="1">
                    <mxGeometry x="1265.2000000000003" y="937.88" width="90" height="20" as="geometry"/>
                </mxCell>
                <mxCell id="KiWz8coLWyKFR9xS5uvN-415" value="Kubelet" style="rounded=1;whiteSpace=wrap;html=1;fontSize=14;fontStyle=1;fontColor=#FFFFFF;strokeColor=none;fillColor=#009999;" parent="1" vertex="1">
                    <mxGeometry x="1135.2000000000003" y="815.87" width="110" height="30" as="geometry"/>
                </mxCell>
                <mxCell id="KiWz8coLWyKFR9xS5uvN-416" value="Kube-proxy" style="rounded=1;whiteSpace=wrap;html=1;fontSize=14;fontStyle=1;fontColor=#FFFFFF;strokeColor=none;fillColor=#009999;" parent="1" vertex="1">
                    <mxGeometry x="1136.5800000000004" y="852" width="110" height="30" as="geometry"/>
                </mxCell>
                <mxCell id="KiWz8coLWyKFR9xS5uvN-417" value="Docker Daemon" style="rounded=1;whiteSpace=wrap;html=1;fontSize=14;fontStyle=1;fontColor=#FFFFFF;strokeColor=none;fillColor=#009999;" parent="1" vertex="1">
                    <mxGeometry x="1255.2000000000003" y="852" width="110" height="30" as="geometry"/>
                </mxCell>
                <mxCell id="KiWz8coLWyKFR9xS5uvN-418" value="Flannel" style="rounded=1;whiteSpace=wrap;html=1;fontSize=14;fontStyle=1;fontColor=#FFFFFF;strokeColor=none;fillColor=#009999;" parent="1" vertex="1">
                    <mxGeometry x="1255.2000000000003" y="815.87" width="110" height="30" as="geometry"/>
                </mxCell>
                <mxCell id="KiWz8coLWyKFR9xS5uvN-419" value="BCS-IPAM" style="rounded=1;whiteSpace=wrap;html=1;fontSize=14;fontStyle=1;fontColor=#FFFFFF;strokeColor=none;fillColor=#3399FF;" parent="1" vertex="1">
                    <mxGeometry x="1255.2000000000003" y="889" width="110" height="30" as="geometry"/>
                </mxCell>
                <mxCell id="KiWz8coLWyKFR9xS5uvN-420" value="Business Container" style="rounded=1;whiteSpace=wrap;html=1;fontSize=14;fontStyle=1;fontColor=#FFFFFF;strokeColor=none;fillColor=#CC6600;" parent="1" vertex="1">
                    <mxGeometry x="1136.58" y="926.72" width="112.5" height="40.82" as="geometry"/>
                </mxCell>
                <mxCell id="KiWz8coLWyKFR9xS5uvN-421" value="CNI" style="rounded=1;whiteSpace=wrap;html=1;fontSize=14;fontStyle=1;fontColor=#FFFFFF;strokeColor=none;fillColor=#3399FF;" parent="1" vertex="1">
                    <mxGeometry x="1135.2000000000003" y="889" width="110" height="30" as="geometry"/>
                </mxCell>
                <mxCell id="KiWz8coLWyKFR9xS5uvN-441" value="" style="endArrow=classic;html=1;strokeColor=#3399FF;strokeWidth=2;fontSize=14;fontColor=#FFFFFF;entryX=0.5;entryY=0;entryDx=0;entryDy=0;rounded=0;" parent="1" target="KiWz8coLWyKFR9xS5uvN-232" edge="1">
                    <mxGeometry width="50" height="50" relative="1" as="geometry">
                        <mxPoint x="1160" y="150" as="sourcePoint"/>
                        <mxPoint x="601.5600000000004" y="560" as="targetPoint"/>
                        <Array as="points">
                            <mxPoint x="1160" y="510"/>
                            <mxPoint x="898" y="510"/>
                        </Array>
                    </mxGeometry>
                </mxCell>
                <mxCell id="KiWz8coLWyKFR9xS5uvN-442" value="" style="endArrow=classic;html=1;strokeColor=#3399FF;strokeWidth=2;fontSize=14;fontColor=#FFFFFF;entryX=0.5;entryY=0;entryDx=0;entryDy=0;rounded=0;exitX=0.417;exitY=1.025;exitDx=0;exitDy=0;exitPerimeter=0;" parent="1" source="KiWz8coLWyKFR9xS5uvN-207" target="KiWz8coLWyKFR9xS5uvN-306" edge="1">
                    <mxGeometry width="50" height="50" relative="1" as="geometry">
                        <mxPoint x="1190" y="160" as="sourcePoint"/>
                        <mxPoint x="611.5600000000004" y="570" as="targetPoint"/>
                        <Array as="points">
                            <mxPoint x="1159" y="510"/>
                            <mxPoint x="1249" y="510"/>
                        </Array>
                    </mxGeometry>
                </mxCell>
                <mxCell id="KiWz8coLWyKFR9xS5uvN-443" value="" style="endArrow=classic;html=1;strokeColor=#3399FF;strokeWidth=2;fontSize=14;fontColor=#FFFFFF;entryX=0.5;entryY=0;entryDx=0;entryDy=0;rounded=0;exitX=0.417;exitY=1.018;exitDx=0;exitDy=0;exitPerimeter=0;" parent="1" source="KiWz8coLWyKFR9xS5uvN-207" target="KiWz8coLWyKFR9xS5uvN-355" edge="1">
                    <mxGeometry width="50" height="50" relative="1" as="geometry">
                        <mxPoint x="1130" y="160" as="sourcePoint"/>
                        <mxPoint x="1259.0699999999997" y="555" as="targetPoint"/>
                        <Array as="points">
                            <mxPoint x="1160" y="510"/>
                            <mxPoint x="1590" y="510"/>
                        </Array>
                    </mxGeometry>
                </mxCell>
                <mxCell id="KiWz8coLWyKFR9xS5uvN-444" value="&lt;font color=&quot;#1a1a1a&quot;&gt;集群访问&lt;/font&gt;" style="text;html=1;resizable=0;points=[];align=center;verticalAlign=middle;labelBackgroundColor=#ffffff;fontSize=14;fontColor=#FFFFFF;" parent="1" vertex="1" connectable="0">
                    <mxGeometry x="1161" y="190.0041554111437" as="geometry">
                        <mxPoint x="5" y="-5" as="offset"/>
                    </mxGeometry>
                </mxCell>
                <mxCell id="KiWz8coLWyKFR9xS5uvN-446" value="ClusterManager" style="rounded=1;whiteSpace=wrap;html=1;fontSize=14;fontStyle=1;fontColor=#FFFFFF;strokeColor=none;fillColor=#3399FF;" parent="1" vertex="1">
                    <mxGeometry x="1410" y="210" width="120" height="40" as="geometry"/>
                </mxCell>
                <mxCell id="KiWz8coLWyKFR9xS5uvN-447" style="rounded=0;orthogonalLoop=1;jettySize=auto;html=1;entryX=0;entryY=0.5;entryDx=0;entryDy=0;strokeColor=#009900;strokeWidth=2;fontSize=14;fontColor=#FFFFFF;endArrow=classic;endFill=1;startArrow=classic;startFill=1;entryPerimeter=0;" parent="1" target="KiWz8coLWyKFR9xS5uvN-446" edge="1">
                    <mxGeometry relative="1" as="geometry">
                        <mxPoint x="1299.07" y="150" as="sourcePoint"/>
                        <mxPoint x="1389.07" y="180" as="targetPoint"/>
                        <Array as="points">
                            <mxPoint x="1299" y="230"/>
                        </Array>
                    </mxGeometry>
                </mxCell>
                <mxCell id="KiWz8coLWyKFR9xS5uvN-448" value="&lt;font color=&quot;#1a1a1a&quot;&gt;集群管理&lt;/font&gt;" style="text;html=1;resizable=0;points=[];align=center;verticalAlign=middle;labelBackgroundColor=#ffffff;fontSize=14;fontColor=#FFFFFF;" parent="1" vertex="1" connectable="0">
                    <mxGeometry x="929.9985747802853" y="259.9984557679454" as="geometry">
                        <mxPoint x="418" y="-41" as="offset"/>
                    </mxGeometry>
                </mxCell>
                <mxCell id="KiWz8coLWyKFR9xS5uvN-449" value="ETCD" style="shape=cylinder;whiteSpace=wrap;html=1;boundedLbl=1;backgroundOutline=1;fontSize=14;fontStyle=1;strokeColor=#FFFFFF;strokeWidth=2;fillColor=#FF99CC;" parent="1" vertex="1">
                    <mxGeometry x="1610.4400000000003" y="195" width="85" height="35" as="geometry"/>
                </mxCell>
                <mxCell id="KiWz8coLWyKFR9xS5uvN-451" style="rounded=0;orthogonalLoop=1;jettySize=auto;html=1;strokeColor=#009900;strokeWidth=2;fontSize=14;fontColor=#FFFFFF;exitX=1;exitY=0.5;exitDx=0;exitDy=0;entryX=0.5;entryY=1;entryDx=0;entryDy=0;" parent="1" source="KiWz8coLWyKFR9xS5uvN-387" target="KiWz8coLWyKFR9xS5uvN-449" edge="1">
                    <mxGeometry relative="1" as="geometry">
                        <mxPoint x="1250" y="160" as="sourcePoint"/>
                        <mxPoint x="1650" y="230" as="targetPoint"/>
                        <Array as="points">
                            <mxPoint x="1570" y="180"/>
                            <mxPoint x="1570" y="280"/>
                            <mxPoint x="1653" y="280"/>
                        </Array>
                    </mxGeometry>
                </mxCell>
                <mxCell id="KiWz8coLWyKFR9xS5uvN-453" style="rounded=0;orthogonalLoop=1;jettySize=auto;html=1;strokeColor=#009900;strokeWidth=2;fontSize=14;fontColor=#FFFFFF;exitX=1;exitY=0.5;exitDx=0;exitDy=0;entryX=0.5;entryY=1;entryDx=0;entryDy=0;" parent="1" source="KiWz8coLWyKFR9xS5uvN-446" target="KiWz8coLWyKFR9xS5uvN-449" edge="1">
                    <mxGeometry relative="1" as="geometry">
                        <mxPoint x="1540" y="190" as="sourcePoint"/>
                        <mxPoint x="1710" y="250" as="targetPoint"/>
                        <Array as="points">
                            <mxPoint x="1570" y="230"/>
                            <mxPoint x="1570" y="280"/>
                            <mxPoint x="1653" y="280"/>
                        </Array>
                    </mxGeometry>
                </mxCell>
                <mxCell id="KiWz8coLWyKFR9xS5uvN-454" style="rounded=0;orthogonalLoop=1;jettySize=auto;html=1;strokeColor=#009900;strokeWidth=2;fontSize=14;fontColor=#FFFFFF;exitX=0.813;exitY=0;exitDx=0;exitDy=0;exitPerimeter=0;entryX=0.5;entryY=1;entryDx=0;entryDy=0;" parent="1" source="KiWz8coLWyKFR9xS5uvN-273" target="KiWz8coLWyKFR9xS5uvN-449" edge="1">
                    <mxGeometry relative="1" as="geometry">
                        <mxPoint x="1550" y="200" as="sourcePoint"/>
                        <mxPoint x="1690" y="240" as="targetPoint"/>
                        <Array as="points">
                            <mxPoint x="1280" y="280"/>
                            <mxPoint x="1653" y="280"/>
                        </Array>
                    </mxGeometry>
                </mxCell>
                <mxCell id="KiWz8coLWyKFR9xS5uvN-455" style="rounded=0;orthogonalLoop=1;jettySize=auto;html=1;strokeColor=#009900;strokeWidth=2;fontSize=14;fontColor=#FFFFFF;entryX=0.5;entryY=0;entryDx=0;entryDy=0;" parent="1" target="KiWz8coLWyKFR9xS5uvN-449" edge="1">
                    <mxGeometry relative="1" as="geometry">
                        <mxPoint x="1653" y="150" as="sourcePoint"/>
                        <mxPoint x="2193.9400000000005" y="237" as="targetPoint"/>
                    </mxGeometry>
                </mxCell>
                <mxCell id="KiWz8coLWyKFR9xS5uvN-456" value="&lt;font color=&quot;#1a1a1a&quot;&gt;服务注册&lt;/font&gt;" style="text;html=1;resizable=0;points=[];align=center;verticalAlign=middle;labelBackgroundColor=#ffffff;fontSize=14;fontColor=#FFFFFF;" parent="1" vertex="1" connectable="0">
                    <mxGeometry x="1190.1985747802853" y="307.4984557679454" as="geometry">
                        <mxPoint x="418" y="-41" as="offset"/>
                    </mxGeometry>
                </mxCell>
                <mxCell id="KiWz8coLWyKFR9xS5uvN-458" value="&lt;font color=&quot;#1a1a1a&quot; style=&quot;font-size: 14px;&quot;&gt;集群注册&lt;/font&gt;" style="text;html=1;resizable=0;points=[];align=center;verticalAlign=middle;labelBackgroundColor=#ffffff;fontSize=14;fontColor=#FFFFFF;" parent="1" vertex="1" connectable="0">
                    <mxGeometry x="512.25" y="50.000822077809744" as="geometry">
                        <mxPoint x="-18" y="7" as="offset"/>
                    </mxGeometry>
                </mxCell>
                <mxCell id="KiWz8coLWyKFR9xS5uvN-460" value="&lt;font color=&quot;#1a1a1a&quot; style=&quot;font-size: 14px&quot;&gt;集群访问&lt;/font&gt;" style="text;html=1;resizable=0;points=[];align=center;verticalAlign=middle;labelBackgroundColor=#ffffff;fontSize=14;fontColor=#FFFFFF;" parent="1" vertex="1" connectable="0">
                    <mxGeometry x="512.25" y="70.00082207780974" as="geometry">
                        <mxPoint x="-18" y="7" as="offset"/>
                    </mxGeometry>
                </mxCell>
                <mxCell id="KiWz8coLWyKFR9xS5uvN-461" value="&lt;font color=&quot;#1a1a1a&quot; style=&quot;font-size: 14px&quot;&gt;数据链路&lt;/font&gt;" style="text;html=1;resizable=0;points=[];align=center;verticalAlign=middle;labelBackgroundColor=#ffffff;fontSize=14;fontColor=#FFFFFF;" parent="1" vertex="1" connectable="0">
                    <mxGeometry x="512.25" y="90.00082207780974" as="geometry">
                        <mxPoint x="-18" y="7" as="offset"/>
                    </mxGeometry>
                </mxCell>
                <mxCell id="KiWz8coLWyKFR9xS5uvN-463" value="&lt;font color=&quot;#1a1a1a&quot;&gt;原生组件&lt;/font&gt;" style="text;html=1;resizable=0;points=[];align=center;verticalAlign=middle;labelBackgroundColor=#ffffff;fontSize=14;fontColor=#FFFFFF;" parent="1" vertex="1" connectable="0">
                    <mxGeometry x="512.25" y="150.00082207780974" as="geometry">
                        <mxPoint x="-18" y="7" as="offset"/>
                    </mxGeometry>
                </mxCell>
                <mxCell id="KiWz8coLWyKFR9xS5uvN-464" value="&lt;font color=&quot;#1a1a1a&quot;&gt;&amp;nbsp; 自定义组件&lt;/font&gt;" style="text;html=1;resizable=0;points=[];align=center;verticalAlign=middle;labelBackgroundColor=#ffffff;fontSize=14;fontColor=#FFFFFF;" parent="1" vertex="1" connectable="0">
                    <mxGeometry x="502.25" y="120.00082207780974" as="geometry">
                        <mxPoint x="-18" y="7" as="offset"/>
                    </mxGeometry>
                </mxCell>
                <mxCell id="KiWz8coLWyKFR9xS5uvN-466" value="" style="endArrow=classic;html=1;strokeColor=#3399FF;strokeWidth=2;fontSize=14;fontColor=#FFFFFF;rounded=0;" parent="1" edge="1">
                    <mxGeometry width="50" height="50" relative="1" as="geometry">
                        <mxPoint x="542.25" y="80" as="sourcePoint"/>
                        <mxPoint x="599.93" y="80" as="targetPoint"/>
                    </mxGeometry>
                </mxCell>
                <mxCell id="KiWz8coLWyKFR9xS5uvN-468" value="" style="endArrow=classic;html=1;strokeWidth=2;fontSize=14;fontColor=#FFFFFF;rounded=0;strokeColor=#FF66B3;" parent="1" edge="1">
                    <mxGeometry width="50" height="50" relative="1" as="geometry">
                        <mxPoint x="541" y="60" as="sourcePoint"/>
                        <mxPoint x="598.6799999999998" y="60" as="targetPoint"/>
                    </mxGeometry>
                </mxCell>
                <mxCell id="KiWz8coLWyKFR9xS5uvN-469" value="" style="endArrow=classic;html=1;strokeWidth=2;fontSize=14;fontColor=#FFFFFF;rounded=0;strokeColor=#009900;" parent="1" edge="1">
                    <mxGeometry width="50" height="50" relative="1" as="geometry">
                        <mxPoint x="541" y="100" as="sourcePoint"/>
                        <mxPoint x="598.6799999999998" y="100" as="targetPoint"/>
                    </mxGeometry>
                </mxCell>
                <mxCell id="KiWz8coLWyKFR9xS5uvN-470" value="" style="rounded=1;whiteSpace=wrap;html=1;fontSize=14;fontStyle=1;fontColor=#FFFFFF;strokeColor=none;fillColor=#3399FF;" parent="1" vertex="1">
                    <mxGeometry x="540.3699999999999" y="120" width="50.94" height="20" as="geometry"/>
                </mxCell>
                <mxCell id="KiWz8coLWyKFR9xS5uvN-471" value="" style="rounded=1;whiteSpace=wrap;html=1;fontSize=14;fontStyle=1;fontColor=#FFFFFF;strokeColor=none;fillColor=#009999;" parent="1" vertex="1">
                    <mxGeometry x="540.37" y="150" width="51.88" height="20" as="geometry"/>
                </mxCell>
                <mxCell id="KiWz8coLWyKFR9xS5uvN-476" value="GameStatefulSet" style="rounded=1;whiteSpace=wrap;html=1;fontSize=14;fontStyle=1;fontColor=#FFFFFF;strokeColor=none;fillColor=#3399FF;" parent="1" vertex="1">
                    <mxGeometry x="899.32" y="697.75" width="120" height="36.87" as="geometry"/>
                </mxCell>
                <mxCell id="KiWz8coLWyKFR9xS5uvN-477" value="GameDeployment" style="rounded=1;whiteSpace=wrap;html=1;fontSize=14;fontStyle=1;fontColor=#FFFFFF;strokeColor=none;fillColor=#3399FF;" parent="1" vertex="1">
                    <mxGeometry x="772.94" y="697.7500000000001" width="120" height="36.87" as="geometry"/>
                </mxCell>
                <mxCell id="KiWz8coLWyKFR9xS5uvN-478" value="Hook Operator" style="rounded=1;whiteSpace=wrap;html=1;fontSize=14;fontStyle=1;fontColor=#FFFFFF;strokeColor=none;fillColor=#3399FF;" parent="1" vertex="1">
                    <mxGeometry x="776.5699999999999" y="745.0000000000001" width="120" height="36.87" as="geometry"/>
                </mxCell>
                <mxCell id="KiWz8coLWyKFR9xS5uvN-480" value="Hook Operator" style="rounded=1;whiteSpace=wrap;html=1;fontSize=14;fontStyle=1;fontColor=#FFFFFF;strokeColor=none;fillColor=#3399FF;" parent="1" vertex="1">
                    <mxGeometry x="1130.2" y="749.7000000000002" width="120" height="36.87" as="geometry"/>
                </mxCell>
                <mxCell id="KiWz8coLWyKFR9xS5uvN-481" value="GameDeployment" style="rounded=1;whiteSpace=wrap;html=1;fontSize=14;fontStyle=1;fontColor=#FFFFFF;strokeColor=none;fillColor=#3399FF;" parent="1" vertex="1">
                    <mxGeometry x="1130.2000000000003" y="704.0000000000001" width="120" height="36.87" as="geometry"/>
                </mxCell>
                <mxCell id="KiWz8coLWyKFR9xS5uvN-482" value="GameStatefulSet" style="rounded=1;whiteSpace=wrap;html=1;fontSize=14;fontStyle=1;fontColor=#FFFFFF;strokeColor=none;fillColor=#3399FF;" parent="1" vertex="1">
                    <mxGeometry x="1256.3200000000002" y="708.13" width="120" height="36.87" as="geometry"/>
                </mxCell>
                <mxCell id="KiWz8coLWyKFR9xS5uvN-484" value="BCS Federated ApiServer" style="rounded=1;whiteSpace=wrap;html=1;fontSize=14;fontStyle=1;fontColor=#FFFFFF;strokeColor=none;fillColor=#3399FF;" parent="1" vertex="1">
                    <mxGeometry x="617.5" y="380" width="252.5" height="40" as="geometry"/>
                </mxCell>
                <mxCell id="KiWz8coLWyKFR9xS5uvN-485" value="" style="endArrow=classic;html=1;strokeColor=#3399FF;strokeWidth=2;fontSize=14;fontColor=#FFFFFF;rounded=0;exitX=0.417;exitY=1.013;exitDx=0;exitDy=0;exitPerimeter=0;entryX=1.003;entryY=0.439;entryDx=0;entryDy=0;entryPerimeter=0;" parent="1" source="KiWz8coLWyKFR9xS5uvN-207" target="KiWz8coLWyKFR9xS5uvN-271" edge="1">
                    <mxGeometry width="50" height="50" relative="1" as="geometry">
                        <mxPoint x="650" y="120" as="sourcePoint"/>
                        <mxPoint x="707.6799999999998" y="120" as="targetPoint"/>
                        <Array as="points">
                            <mxPoint x="1159" y="510"/>
                            <mxPoint x="1030" y="510"/>
                            <mxPoint x="1030" y="322"/>
                        </Array>
                    </mxGeometry>
                </mxCell>
                <mxCell id="KiWz8coLWyKFR9xS5uvN-486" value="KubecCtlAgg" style="rounded=1;whiteSpace=wrap;html=1;fontSize=14;fontStyle=1;strokeColor=none;fillColor=#3399FF;fontColor=#FFFFFF;" parent="1" vertex="1">
                    <mxGeometry x="866.1300000000002" y="30" width="130" height="40" as="geometry"/>
                </mxCell>
                <mxCell id="KiWz8coLWyKFR9xS5uvN-487" value="" style="shape=flexArrow;endArrow=classic;startArrow=classic;html=1;width=13;endSize=3;startSize=3;fontSize=14;fontStyle=1;strokeColor=#3333FF;strokeWidth=2;entryX=0.5;entryY=1;entryDx=0;entryDy=0;" parent="1" target="KiWz8coLWyKFR9xS5uvN-486" edge="1">
                    <mxGeometry width="50" height="50" relative="1" as="geometry">
                        <mxPoint x="930" y="109" as="sourcePoint"/>
                        <mxPoint x="743.3299999999999" y="50" as="targetPoint"/>
                    </mxGeometry>
                </mxCell>
                <mxCell id="KiWz8coLWyKFR9xS5uvN-488" style="rounded=0;orthogonalLoop=1;jettySize=auto;html=1;strokeColor=#009900;strokeWidth=2;fontSize=14;fontColor=#FFFFFF;exitX=1;exitY=0.5;exitDx=0;exitDy=0;" parent="1" source="KiWz8coLWyKFR9xS5uvN-484" edge="1">
                    <mxGeometry relative="1" as="geometry">
                        <mxPoint x="1250" y="160" as="sourcePoint"/>
                        <mxPoint x="1180" y="370" as="targetPoint"/>
                        <Array as="points">
                            <mxPoint x="910" y="400"/>
                            <mxPoint x="910" y="370"/>
                        </Array>
                    </mxGeometry>
                </mxCell>
                <mxCell id="KiWz8coLWyKFR9xS5uvN-489" value="&lt;font color=&quot;#1a1a1a&quot;&gt;数据查询&lt;/font&gt;" style="text;html=1;resizable=0;points=[];align=center;verticalAlign=middle;labelBackgroundColor=#ffffff;fontSize=14;fontColor=#FFFFFF;" parent="KiWz8coLWyKFR9xS5uvN-488" vertex="1" connectable="0">
                    <mxGeometry x="0.0431" y="-3" relative="1" as="geometry">
                        <mxPoint x="-27" y="-5" as="offset"/>
                    </mxGeometry>
                </mxCell>
                <mxCell id="KiWz8coLWyKFR9xS5uvN-490" value="MongoDB" style="shape=cylinder;whiteSpace=wrap;html=1;boundedLbl=1;backgroundOutline=1;fontSize=14;fontStyle=1;strokeColor=#FFFFFF;strokeWidth=2;fillColor=#FF99CC;" parent="1" vertex="1">
                    <mxGeometry x="1413.26" y="384.5" width="94.56" height="42" as="geometry"/>
                </mxCell>
                <mxCell id="KiWz8coLWyKFR9xS5uvN-491" style="rounded=0;orthogonalLoop=1;jettySize=auto;html=1;strokeColor=#009900;strokeWidth=2;fontSize=14;fontColor=#FFFFFF;entryX=0;entryY=0.5;entryDx=0;entryDy=0;" parent="1" target="KiWz8coLWyKFR9xS5uvN-490" edge="1">
                    <mxGeometry relative="1" as="geometry">
                        <Array as="points">
                            <mxPoint x="1340" y="368"/>
                            <mxPoint x="1340" y="406"/>
                        </Array>
                        <mxPoint x="1301" y="368" as="sourcePoint"/>
                        <mxPoint x="1399.0700000000002" y="352.9999999999998" as="targetPoint"/>
                    </mxGeometry>
                </mxCell>
                <mxCell id="KiWz8coLWyKFR9xS5uvN-492" value="&lt;font color=&quot;#1a1a1a&quot;&gt;数据存储&lt;/font&gt;" style="text;html=1;resizable=0;points=[];align=center;verticalAlign=middle;labelBackgroundColor=#ffffff;fontSize=14;fontColor=#FFFFFF;" parent="1" vertex="1" connectable="0">
                    <mxGeometry x="1390.0000000000002" y="371" as="geometry">
                        <mxPoint x="-26" y="44" as="offset"/>
                    </mxGeometry>
                </mxCell>
            </root>
        </mxGraphModel>
    </diagram>
</mxfile>